# xmcd
#
# Track frame offsets: 
#        150
#        10601
#        27125
#        38597
#        49844
#        65315
#        78807
#        92976
#        107566
#        122710
#        129342
#        139746
#        154802
#        170000
#
# Disc length: 2457 seconds
#
# Revision: 0
# Processed by: cddbd v1.5.2PL0 Copyright (c) Steve Scherf et al.
# Submitted via: ExactAudioCopyFreeDBPlugin 1.0
#
DISCID=a809970e
DTITLE=Various Artist - Hello Frank - Just Friends
DYEAR=2015
DGENRE=Blues
TTITLE0=YOU'RE GETTING TO BE A HABIT WITH ME
TTITLE1=JUST FRIENDS
TTITLE2=IF LOVELINESS WERE MUSIC
TTITLE3=TOO MARVELLOUS FOR WORDS
TTITLE4=I'LL WALK ALONE
TTITLE5=WHISPERING
TTITLE6=LOOKING FOR YESTERDAY
TTITLE7=THAT OLD FEELING
TTITLE8=LOVER COME BACK TO ME
TTITLE9=PUT YOUR DREAMS AWAY  
TTITLE10=WITHOUT A SONG
TTITLE11=THE HOUSE I LIVE IN
TTITLE12=MAM'SELLE
TTITLE13=MY ROMANCE
EXTD=
EXTT0=
EXTT1=
EXTT2=
EXTT3=
EXTT4=
EXTT5=
EXTT6=
EXTT7=
EXTT8=
EXTT9=
EXTT10=
EXTT11=
EXTT12=
EXTT13=
PLAYORDER=
